<?xml version="1.0" encoding="UTF-8"?>
<svg id="Layer_1" data-name="Layer 1" xmlns="http://www.w3.org/2000/svg" viewBox="0 0 370.63 351.22">
  <defs>
    <style>
      .cls-1, .cls-2 {
        fill: #232133;
      }

      .cls-3 {
        letter-spacing: .02em;
      }

      .cls-4 {
        letter-spacing: .04em;
      }

      .cls-5 {
        letter-spacing: .02em;
      }

      .cls-6 {
        fill: #f2f1f8;
      }

      .cls-7 {
        letter-spacing: .04em;
      }

      .cls-8 {
        letter-spacing: .05em;
      }

      .cls-9 {
        fill: #f27143;
      }

      .cls-2 {
        font-family: JosefinSans-SemiBold, 'Josefin Sans';
        font-size: 42.77px;
        font-weight: 600;
      }

      .cls-10 {
        letter-spacing: .04em;
      }
    </style>
  </defs>
  <g>
    <polygon class="cls-1" points="207.14 270 176.92 270 176.92 279.06 198.08 279.06 198.08 288.11 176.92 288.11 176.92 297.17 198.08 297.17 198.08 297.18 207.14 297.18 207.14 270 207.14 270 207.14 270"/>
    <rect class="cls-9" x="176.92" y="251.89" width="30.22" height="9.06"/>
    <polygon class="cls-1" points="157.34 278.95 126.23 250.38 125.87 250.38 125.87 296.69 134.77 296.69 134.58 270.35 165.76 298.5 166 298.5 166 252.13 157.16 252.13 157.34 278.95"/>
    <polygon class="cls-1" points="213.87 260.61 224.28 260.61 224.28 296.69 233.06 296.69 233.06 260.61 243.9 260.61 243.9 252.13 213.87 252.13 213.87 260.61"/>
    <polygon class="cls-1" points="271.62 272.71 261.39 252.13 250.55 252.13 266.96 282.82 266.96 296.69 275.74 296.69 275.74 282.82 292.44 252.13 281.61 252.13 271.62 272.71"/>
    <polygon class="cls-1" points="309.24 252.13 300.46 252.13 300.46 296.69 330.19 296.69 330.19 288.21 309.24 288.21 309.24 252.13"/>
    <polygon class="cls-1" points="348.17 288.21 348.17 278.59 367.3 278.59 367.3 270.11 348.17 270.11 348.17 260.61 369.78 260.61 369.78 252.13 339.39 252.13 339.39 296.69 370.63 296.69 370.63 288.21 348.17 288.21"/>
    <path class="cls-1" d="M42.4,285.85c2.08-3.47,3.12-7.26,3.12-11.38s-1.04-7.81-3.12-11.32c-2.08-3.51-4.86-6.31-8.35-8.38-3.49-2.08-7.27-3.12-11.35-3.12s-7.86,1.04-11.35,3.12c-3.49,2.08-6.26,4.87-8.3,8.38-2.04,3.51-3.06,7.28-3.06,11.32s1.02,7.91,3.06,11.38c2.04,3.47,4.79,6.23,8.26,8.26,3.47,2.04,7.26,3.06,11.38,3.06h.06v3.91h22.76v-8.78h-8.79c2.27-1.77,4.15-3.92,5.67-6.45ZM34.69,281.64c-1.17,2.16-2.78,3.87-4.84,5.14-2.06,1.27-4.34,1.91-6.84,1.91s-4.93-.64-7.05-1.91c-2.12-1.27-3.79-3-5.02-5.18-1.23-2.18-1.85-4.56-1.85-7.14s.6-5.08,1.82-7.26c1.21-2.18,2.85-3.9,4.93-5.18,2.08-1.27,4.39-1.91,6.93-1.91s4.85.64,6.93,1.91c2.08,1.27,3.72,3,4.93,5.18,1.21,2.18,1.82,4.6,1.82,7.26s-.58,5.02-1.76,7.17Z"/>
    <path class="cls-1" d="M82.7,280.22c0,1.41-.41,2.76-1.24,4.06-.83,1.29-1.97,2.34-3.42,3.15-1.45.81-3.05,1.21-4.78,1.21-1.61,0-3.13-.4-4.54-1.21-1.41-.81-2.54-1.86-3.39-3.15-.85-1.29-1.27-2.64-1.27-4.06v-28.09h-8.78v28.27c0,3.19.8,6.06,2.39,8.63,1.59,2.56,3.76,4.56,6.51,5.99,2.74,1.43,5.77,2.15,9.08,2.15s6.35-.72,9.11-2.15c2.76-1.43,4.95-3.43,6.57-5.99,1.61-2.56,2.42-5.44,2.42-8.63v-28.27h-8.66v28.09Z"/>
    <rect class="cls-1" x="103.97" y="252.13" width="8.78" height="44.55"/>
    <text class="cls-2" transform="translate(93.4 340.91)"><tspan class="cls-3" x="0" y="0">L</tspan><tspan class="cls-7" x="27.64" y="0">I</tspan><tspan class="cls-10" x="42.72" y="0">M</tspan><tspan class="cls-5" x="84.26" y="0">IT</tspan><tspan class="cls-4" x="124.38" y="0">E</tspan><tspan class="cls-8" x="154.04" y="0">D</tspan></text>
  </g>
  <g>
    <circle class="cls-1" cx="184.99" cy="111.05" r="111.05"/>
    <g>
      <path class="cls-6" d="M201.63,107.99v16.6h42.61v16.6h-48.99s-16.62,0-16.62,0c4.29-3.35,7.85-7.41,10.71-12.2,3.94-6.56,5.9-13.74,5.9-21.52s-1.97-14.77-5.9-21.41c-3.93-6.64-9.19-11.93-15.8-15.86-6.61-3.94-13.76-5.9-21.47-5.9s-14.87,1.97-21.47,5.9c-6.6,3.93-11.84,9.21-15.69,15.86-3.86,6.64-5.79,13.78-5.79,21.41s1.93,14.96,5.79,21.52c3.85,6.57,9.06,11.78,15.64,15.64,6.55,3.85,13.73,5.78,21.52,5.78h.12v7.39h108.64v-12.06h0v-37.76h-59.21ZM174.75,121.04c-2.22,4.08-5.27,7.33-9.15,9.73-3.9,2.4-8.21,3.61-12.95,3.61s-9.33-1.2-13.34-3.61c-4.01-2.4-7.17-5.67-9.5-9.79-2.34-4.12-3.5-8.63-3.5-13.51s1.14-9.62,3.44-13.74c2.29-4.13,5.4-7.39,9.33-9.79,3.93-2.4,8.3-3.6,13.12-3.6s9.17,1.2,13.1,3.6c3.93,2.4,7.04,5.67,9.33,9.79,2.3,4.12,3.44,8.7,3.44,13.74s-1.11,9.49-3.32,13.57Z"/>
      <rect class="cls-9" x="201.64" y="74.78" width="59.21" height="16.6"/>
    </g>
  </g>
</svg>