<?xml version="1.0" encoding="UTF-8"?>
<svg id="Layer_1" data-name="Layer 1" xmlns="http://www.w3.org/2000/svg" viewBox="0 0 731.93 204.14">
  <defs>
    <style>
      .cls-1, .cls-2 {
        fill: #232133;
      }

      .cls-3 {
        letter-spacing: .03em;
      }

      .cls-4 {
        letter-spacing: .05em;
      }

      .cls-5 {
        fill: #f2f1f8;
      }

      .cls-6 {
        letter-spacing: .01em;
      }

      .cls-7 {
        letter-spacing: .01em;
      }

      .cls-8 {
        fill: #f27143;
      }

      .cls-9 {
        letter-spacing: .01em;
      }

      .cls-10 {
        letter-spacing: .03em;
      }

      .cls-2 {
        font-family: JosefinSans-SemiBold, 'Josefin Sans';
        font-size: 58.54px;
        font-weight: 600;
      }

      .cls-11 {
        letter-spacing: .03em;
      }
    </style>
  </defs>
  <g>
    <polygon class="cls-1" points="508.19 65.95 466.83 65.95 466.83 78.35 495.8 78.35 495.8 90.74 466.83 90.74 466.83 103.13 495.8 103.13 495.8 103.14 508.19 103.14 508.19 65.95 508.19 65.95 508.19 65.95"/>
    <rect class="cls-8" x="466.83" y="41.16" width="41.36" height="12.39"/>
    <polygon class="cls-1" points="440.05 78.19 397.46 39.09 396.97 39.09 396.97 102.47 409.15 102.47 408.9 66.43 451.56 104.95 451.89 104.95 451.89 41.5 439.8 41.5 440.05 78.19"/>
    <polygon class="cls-1" points="517.4 53.09 531.65 53.09 531.65 102.47 543.66 102.47 543.66 53.09 558.49 53.09 558.49 41.5 517.4 41.5 517.4 53.09"/>
    <polygon class="cls-1" points="596.43 69.66 582.43 41.5 567.6 41.5 590.05 83.5 590.05 102.47 602.07 102.47 602.07 83.5 624.93 41.5 610.1 41.5 596.43 69.66"/>
    <polygon class="cls-1" points="647.92 41.5 635.9 41.5 635.9 102.47 676.58 102.47 676.58 90.87 647.92 90.87 647.92 41.5"/>
    <polygon class="cls-1" points="701.19 90.87 701.19 77.7 727.37 77.7 727.37 66.1 701.19 66.1 701.19 53.09 730.77 53.09 730.77 41.5 689.18 41.5 689.18 102.47 731.93 102.47 731.93 90.87 701.19 90.87"/>
    <path class="cls-1" d="M282.75,87.63c2.85-4.74,4.27-9.94,4.27-15.57s-1.42-10.69-4.27-15.49c-2.84-4.81-6.65-8.63-11.43-11.47-4.78-2.85-9.95-4.27-15.53-4.27s-10.76,1.42-15.53,4.27c-4.78,2.84-8.57,6.67-11.35,11.47-2.79,4.8-4.18,9.97-4.18,15.49s1.4,10.83,4.18,15.57c2.79,4.75,6.56,8.53,11.31,11.31,4.75,2.79,9.94,4.18,15.57,4.18h.08v5.34h31.15v-12.02h-12.02c3.1-2.42,5.68-5.36,7.75-8.82ZM272.19,81.88c-1.6,2.95-3.81,5.3-6.62,7.04-2.82,1.74-5.94,2.61-9.37,2.61s-6.75-.87-9.65-2.61c-2.9-1.74-5.19-4.1-6.87-7.08-1.69-2.98-2.53-6.24-2.53-9.78s.83-6.96,2.49-9.94c1.65-2.98,3.9-5.34,6.75-7.08,2.84-1.74,6-2.61,9.49-2.61s6.64.87,9.48,2.61c2.85,1.74,5.1,4.1,6.75,7.08,1.66,2.98,2.49,6.3,2.49,9.94s-.8,6.86-2.4,9.82Z"/>
    <path class="cls-1" d="M337.89,79.93c0,1.93-.57,3.78-1.7,5.55-1.13,1.77-2.69,3.2-4.68,4.31-1.99,1.11-4.17,1.66-6.54,1.66-2.21,0-4.28-.55-6.21-1.66-1.93-1.1-3.48-2.54-4.64-4.31-1.16-1.77-1.74-3.62-1.74-5.55v-38.44h-12.01v38.69c0,4.36,1.09,8.3,3.27,11.81,2.18,3.51,5.15,6.24,8.91,8.2,3.75,1.96,7.9,2.94,12.43,2.94s8.68-.98,12.47-2.94c3.78-1.96,6.78-4.69,8.99-8.2,2.21-3.51,3.31-7.44,3.31-11.81v-38.69h-11.85v38.44Z"/>
    <rect class="cls-1" x="367" y="41.5" width="12.01" height="60.97"/>
  </g>
  <text class="cls-2" transform="translate(218.8 163.52)"><tspan class="cls-9" x="0" y="0">L</tspan><tspan class="cls-10" x="37.47" y="0">I</tspan><tspan class="cls-3" x="57.77" y="0">M</tspan><tspan class="cls-7" x="114.27" y="0">I</tspan><tspan class="cls-6" x="133.58" y="0">T</tspan><tspan class="cls-11" x="168.46" y="0">E</tspan><tspan class="cls-4" x="208.71" y="0">D</tspan></text>
  <g>
    <circle class="cls-1" cx="102.07" cy="102.07" r="102.07"/>
    <g>
      <path class="cls-5" d="M117.36,99.26v15.26h39.17v15.26h-45.03s-15.27,0-15.27,0c3.94-3.08,7.22-6.81,9.85-11.21,3.62-6.03,5.43-12.63,5.43-19.78s-1.81-13.58-5.43-19.68c-3.61-6.11-8.44-10.97-14.52-14.57-6.07-3.62-12.65-5.43-19.74-5.43s-13.66,1.81-19.73,5.43c-6.07,3.61-10.88,8.47-14.42,14.57-3.54,6.1-5.32,12.66-5.32,19.68s1.78,13.75,5.32,19.78c3.54,6.04,8.33,10.82,14.37,14.37,6.02,3.54,12.62,5.32,19.78,5.32h.11v6.79h99.86v-11.08h0v-34.7h-54.43ZM92.66,111.26c-2.04,3.75-4.84,6.74-8.41,8.94-3.59,2.21-7.54,3.32-11.9,3.32s-8.58-1.11-12.26-3.32c-3.69-2.21-6.59-5.21-8.73-9-2.15-3.79-3.22-7.93-3.22-12.42s1.05-8.84,3.16-12.63c2.1-3.79,4.96-6.79,8.58-9,3.61-2.21,7.63-3.31,12.06-3.31s8.43,1.1,12.04,3.31c3.62,2.21,6.47,5.21,8.58,9,2.11,3.79,3.16,7.99,3.16,12.63s-1.02,8.72-3.05,12.48Z"/>
      <rect class="cls-8" x="117.37" y="68.73" width="54.42" height="15.26"/>
    </g>
  </g>
</svg>