<?xml version="1.0" encoding="UTF-8"?>
<svg id="Layer_1" data-name="Layer 1" xmlns="http://www.w3.org/2000/svg" viewBox="0 0 240.68 240.68">
  <defs>
    <style>
      .cls-1 {
        fill: #232133;
      }

      .cls-2 {
        fill: #f27143;
      }

      .cls-3 {
        fill: #f3f2f8;
      }
    </style>
  </defs>
  <circle class="cls-3" cx="120.34" cy="120.34" r="120.34"/>
  <path class="cls-1" d="M138.37,117.02v17.99h46.18v17.99h-53.09s-18.01,0-18.01,0c4.64-3.63,8.51-8.03,11.61-13.22,4.27-7.11,6.4-14.89,6.4-23.32s-2.13-16.01-6.4-23.2c-4.25-7.2-9.95-12.93-17.12-17.18-7.16-4.27-14.91-6.4-23.27-6.4s-16.11,2.13-23.26,6.4c-7.15,4.25-12.83,9.98-17,17.18-4.18,7.19-6.27,14.93-6.27,23.2s2.09,16.21,6.27,23.32c4.17,7.12,9.82,12.76,16.95,16.95,7.1,4.17,14.88,6.27,23.32,6.27h.13v8.01h117.73v-13.07h0v-40.92h-64.17ZM109.24,131.17c-2.4,4.43-5.71,7.94-9.92,10.54-4.23,2.61-8.89,3.91-14.03,3.91s-10.11-1.3-14.45-3.91c-4.35-2.6-7.77-6.14-10.29-10.61-2.53-4.47-3.79-9.35-3.79-14.64s1.24-10.42,3.73-14.89c2.48-4.47,5.85-8.01,10.11-10.61,4.26-2.6,8.99-3.9,14.21-3.9s9.94,1.3,14.2,3.9c4.26,2.61,7.63,6.14,10.11,10.61,2.49,4.47,3.73,9.42,3.73,14.89s-1.2,10.28-3.6,14.71Z"/>
  <rect class="cls-2" x="138.38" y="81.04" width="64.17" height="17.99"/>
</svg>