<?xml version="1.0" encoding="UTF-8"?>
<svg id="Layer_1" data-name="Layer 1" xmlns="http://www.w3.org/2000/svg" viewBox="0 0 566.15 154.04">
  <defs>
    <style>
      .cls-1 {
        letter-spacing: .03em;
      }

      .cls-2 {
        fill: #f27143;
      }

      .cls-3 {
        letter-spacing: .05em;
      }

      .cls-4 {
        font-family: JosefinSans-SemiBold, 'Josefin Sans';
        font-size: 65.34px;
        font-weight: 600;
      }

      .cls-4, .cls-5 {
        fill: #f3f2f8;
      }

      .cls-6 {
        letter-spacing: 0em;
      }

      .cls-7 {
        letter-spacing: .01em;
      }

      .cls-8 {
        letter-spacing: .03em;
      }

      .cls-9 {
        letter-spacing: .03em;
      }
    </style>
  </defs>
  <polygon class="cls-5" points="316.41 29.98 270.25 29.98 270.25 43.81 302.58 43.81 302.58 57.65 270.24 57.65 270.24 71.48 302.58 71.48 302.58 71.49 316.42 71.49 316.42 29.98 316.41 29.98 316.41 29.98"/>
  <rect class="cls-2" x="270.25" y="2.31" width="46.17" height="13.83"/>
  <polygon class="cls-5" points="240.35 43.64 192.82 0 192.27 0 192.27 70.74 205.86 70.74 205.58 30.51 253.2 73.51 253.57 73.51 253.57 2.68 240.07 2.68 240.35 43.64"/>
  <polygon class="cls-5" points="326.69 15.63 342.6 15.63 342.6 70.74 356.01 70.74 356.01 15.63 372.56 15.63 372.56 2.68 326.69 2.68 326.69 15.63"/>
  <polygon class="cls-5" points="414.91 34.12 399.28 2.68 382.73 2.68 407.79 49.56 407.79 70.74 421.2 70.74 421.2 49.56 446.72 2.68 430.16 2.68 414.91 34.12"/>
  <polygon class="cls-5" points="472.37 2.68 458.97 2.68 458.97 70.74 504.37 70.74 504.37 57.79 472.37 57.79 472.37 2.68"/>
  <polygon class="cls-5" points="531.84 57.79 531.84 43.09 561.06 43.09 561.06 30.14 531.84 30.14 531.84 15.63 564.85 15.63 564.85 2.68 518.43 2.68 518.43 70.74 566.15 70.74 566.15 57.79 531.84 57.79"/>
  <path class="cls-5" d="M64.77,54.18c3.18-5.29,4.77-11.09,4.77-17.38s-1.59-11.93-4.77-17.29c-3.17-5.37-7.43-9.63-12.76-12.81-5.33-3.18-11.11-4.77-17.34-4.77s-12.01,1.59-17.34,4.77c-5.33,3.17-9.56,7.44-12.67,12.81C1.56,24.87,0,30.64,0,36.8s1.56,12.09,4.67,17.38c3.11,5.3,7.32,9.52,12.62,12.62,5.3,3.12,11.09,4.67,17.38,4.67h.09v5.97h34.77v-13.41h-13.42c3.46-2.7,6.34-5.98,8.66-9.85ZM52.98,47.76c-1.78,3.3-4.25,5.92-7.39,7.86-3.15,1.94-6.63,2.91-10.45,2.91s-7.54-.97-10.77-2.91c-3.23-1.94-5.79-4.58-7.67-7.91-1.89-3.33-2.82-6.97-2.82-10.91s.92-7.76,2.78-11.09c1.85-3.33,4.36-5.96,7.54-7.91,3.17-1.94,6.7-2.91,10.59-2.91s7.41.97,10.58,2.91c3.18,1.94,5.69,4.58,7.54,7.91,1.85,3.33,2.78,7.03,2.78,11.09s-.89,7.66-2.68,10.96Z"/>
  <path class="cls-5" d="M126.33,45.59c0,2.16-.63,4.22-1.9,6.2-1.26,1.97-3.01,3.58-5.22,4.81-2.22,1.23-4.66,1.85-7.3,1.85-2.47,0-4.78-.62-6.93-1.85-2.16-1.23-3.88-2.83-5.18-4.81-1.29-1.97-1.94-4.04-1.94-6.2V2.68h-13.41v43.18c0,4.87,1.22,9.26,3.65,13.18,2.43,3.92,5.75,6.97,9.94,9.15,4.19,2.19,8.81,3.28,13.87,3.28s9.69-1.09,13.92-3.28c4.22-2.19,7.57-5.24,10.03-9.15,2.47-3.91,3.7-8.31,3.7-13.18V2.68h-13.22v42.9Z"/>
  <rect class="cls-5" x="158.81" y="2.68" width="13.41" height="68.06"/>
  <text class="cls-4" transform="translate(142.68 138.3)"><tspan class="cls-6" x="0" y="0">L</tspan><tspan class="cls-8" x="41.67" y="0">I</tspan><tspan class="cls-1" x="64.18" y="0">M</tspan><tspan class="cls-7" x="127.11" y="0">IT</tspan><tspan class="cls-9" x="187.27" y="0">E</tspan><tspan class="cls-3" x="232.05" y="0">D</tspan></text>
</svg>